<svg width="143" height="45" viewBox="0 0 143 45" fill="none" xmlns="http://www.w3.org/2000/svg">
<path d="M37.5899 32.6795C37.7946 34.4013 39.2065 35.6218 41.4779 35.6218C42.6647 35.6218 44.2199 35.1423 44.9566 34.3359L47.0234 36.4936C45.6523 38.0192 43.4014 38.7384 41.437 38.7384C36.9556 38.7384 34.2749 35.7961 34.2749 31.35C34.2749 27.1436 36.976 24.0923 41.1914 24.0923C45.55 24.0923 48.2716 26.9692 47.76 32.6577H37.5899V32.6795ZM44.6496 29.8461C44.445 28.0372 43.1149 27.1436 41.2733 27.1436C39.5339 27.1436 38.1015 28.0372 37.6309 29.8461H44.6496Z" fill="black"/>
<path d="M60.488 44.1871V36.755C59.5671 38.2807 57.5413 38.7166 56.1498 38.7166C51.9754 38.7166 49.5812 35.5127 49.5812 31.4589C49.5812 27.3832 52.2414 24.2012 56.2522 24.2012C57.7255 24.2012 59.4648 24.8768 60.4675 26.4243L60.6722 24.5063H63.6802V44.1653H60.488V44.1871ZM60.2015 31.4807C60.2015 29.323 58.8305 27.5358 56.4977 27.5358C54.1649 27.5358 52.7939 29.3012 52.7939 31.4807C52.7939 33.6602 54.3082 35.4255 56.4977 35.4255C58.7077 35.4037 60.2015 33.6384 60.2015 31.4807Z" fill="black"/>
<path d="M69.5735 24.5278V31.7855C69.5735 33.8996 70.6581 35.4907 72.7248 35.4907C74.7097 35.4907 76.0603 33.7253 76.0603 31.6112V24.5278H79.2525V38.4112H76.3672L76.1626 36.5368C74.8121 37.9535 73.5843 38.6073 71.7631 38.6073C68.6527 38.6073 66.3813 36.1009 66.3813 31.8073V24.5278H69.5735Z" fill="black"/>
<path d="M92.4102 24.5281H95.5001V38.3896H92.4716L92.3079 36.3627C91.5712 37.9973 89.5454 38.7819 88.0925 38.8037C84.2455 38.8255 81.3807 36.2973 81.3807 31.437C81.3807 26.664 84.3683 24.1575 88.1744 24.1793C89.9137 24.1793 91.5712 25.0511 92.3284 26.4242L92.4102 24.5281ZM84.5933 31.4588C84.5933 34.096 86.3122 35.6652 88.4404 35.6652C93.5152 35.6652 93.5152 27.2524 88.4404 27.2524C86.3122 27.2524 84.5933 28.7999 84.5933 31.4588Z" fill="black"/>
<path d="M102.212 20.627V24.5718H105.793V27.5141H102.171V33.5077C102.171 34.8372 102.867 35.4693 103.869 35.4693C104.381 35.4693 104.954 35.2949 105.425 35.0552L106.325 37.9757C105.404 38.368 104.627 38.5423 103.665 38.5641C100.841 38.6731 98.9993 36.9513 98.9993 33.5077V27.5141H96.5642V24.5718H98.9993V20.9975L102.212 20.627Z" fill="black"/>
<path d="M111.707 20.6268C111.707 23.3076 107.901 23.3076 107.901 20.6268C107.901 17.946 111.707 17.946 111.707 20.6268ZM108.187 24.4845V38.4114H111.4V24.4845H108.187Z" fill="black"/>
<path d="M127.545 31.4805C127.545 35.469 124.987 38.7164 120.751 38.7164C116.516 38.7164 113.999 35.4908 113.999 31.4805C113.999 27.5139 116.577 24.2446 120.731 24.2446C124.885 24.2446 127.545 27.5139 127.545 31.4805ZM117.232 31.4805C117.232 33.5946 118.419 35.5562 120.772 35.5562C123.125 35.5562 124.312 33.5946 124.312 31.4805C124.312 29.41 122.941 27.3831 120.772 27.3831C118.439 27.3831 117.232 29.3882 117.232 31.4805Z" fill="black"/>
<path d="M139.352 38.3896V31.1319C139.352 29.0178 138.268 27.4267 136.201 27.4267C134.216 27.4267 132.865 29.1921 132.865 31.3062V38.3896H129.673V24.5062H132.559L132.763 26.3806C134.093 25.0075 135.403 24.3101 137.04 24.3101C140.109 24.3101 142.565 26.7511 142.565 31.1101V38.3896H139.352Z" fill="black"/>
<path d="M37.5899 32.6795C37.7946 34.4013 39.2065 35.6218 41.4779 35.6218C42.6647 35.6218 44.2199 35.1423 44.9566 34.3359L47.0234 36.4936C45.6523 38.0192 43.4014 38.7384 41.437 38.7384C36.9556 38.7384 34.2749 35.7961 34.2749 31.35C34.2749 27.1436 36.976 24.0923 41.1914 24.0923C45.55 24.0923 48.2716 26.9692 47.76 32.6577H37.5899V32.6795ZM44.6496 29.8461C44.445 28.0372 43.1149 27.1436 41.2733 27.1436C39.5339 27.1436 38.1015 28.0372 37.6309 29.8461H44.6496Z" fill="url(#paint0_linear_1_53874)"/>
<path d="M60.488 44.1871V36.755C59.5671 38.2807 57.5413 38.7166 56.1498 38.7166C51.9754 38.7166 49.5812 35.5127 49.5812 31.4589C49.5812 27.3832 52.2414 24.2012 56.2522 24.2012C57.7255 24.2012 59.4648 24.8768 60.4675 26.4243L60.6722 24.5063H63.6802V44.1653H60.488V44.1871ZM60.2015 31.4807C60.2015 29.323 58.8305 27.5358 56.4977 27.5358C54.1649 27.5358 52.7939 29.3012 52.7939 31.4807C52.7939 33.6602 54.3082 35.4255 56.4977 35.4255C58.7077 35.4037 60.2015 33.6384 60.2015 31.4807Z" fill="url(#paint1_linear_1_53874)"/>
<path d="M69.5735 24.5278V31.7855C69.5735 33.8996 70.6581 35.4907 72.7248 35.4907C74.7097 35.4907 76.0603 33.7253 76.0603 31.6112V24.5278H79.2525V38.4112H76.3672L76.1626 36.5368C74.8121 37.9535 73.5843 38.6073 71.7631 38.6073C68.6527 38.6073 66.3813 36.1009 66.3813 31.8073V24.5278H69.5735Z" fill="url(#paint2_linear_1_53874)"/>
<path d="M92.4102 24.5281H95.5001V38.3896H92.4716L92.3079 36.3627C91.5712 37.9973 89.5454 38.7819 88.0925 38.8037C84.2455 38.8255 81.3807 36.2973 81.3807 31.437C81.3807 26.664 84.3683 24.1575 88.1744 24.1793C89.9137 24.1793 91.5712 25.0511 92.3284 26.4242L92.4102 24.5281ZM84.5933 31.4588C84.5933 34.096 86.3122 35.6652 88.4404 35.6652C93.5152 35.6652 93.5152 27.2524 88.4404 27.2524C86.3122 27.2524 84.5933 28.7999 84.5933 31.4588Z" fill="url(#paint3_linear_1_53874)"/>
<path d="M102.212 20.627V24.5718H105.793V27.5141H102.171V33.5077C102.171 34.8372 102.867 35.4693 103.869 35.4693C104.381 35.4693 104.954 35.2949 105.425 35.0552L106.325 37.9757C105.404 38.368 104.627 38.5423 103.665 38.5641C100.841 38.6731 98.9993 36.9513 98.9993 33.5077V27.5141H96.5642V24.5718H98.9993V20.9975L102.212 20.627Z" fill="url(#paint4_linear_1_53874)"/>
<path d="M111.707 20.6268C111.707 23.3076 107.901 23.3076 107.901 20.6268C107.901 17.946 111.707 17.946 111.707 20.6268ZM108.187 24.4845V38.4114H111.4V24.4845H108.187Z" fill="url(#paint5_linear_1_53874)"/>
<path d="M127.545 31.4805C127.545 35.469 124.987 38.7164 120.751 38.7164C116.516 38.7164 113.999 35.4908 113.999 31.4805C113.999 27.5139 116.577 24.2446 120.731 24.2446C124.885 24.2446 127.545 27.5139 127.545 31.4805ZM117.232 31.4805C117.232 33.5946 118.419 35.5562 120.772 35.5562C123.125 35.5562 124.312 33.5946 124.312 31.4805C124.312 29.41 122.941 27.3831 120.772 27.3831C118.439 27.3831 117.232 29.3882 117.232 31.4805Z" fill="url(#paint6_linear_1_53874)"/>
<path d="M139.352 38.3896V31.1319C139.352 29.0178 138.268 27.4267 136.201 27.4267C134.216 27.4267 132.865 29.1921 132.865 31.3062V38.3896H129.673V24.5062H132.559L132.763 26.3806C134.093 25.0075 135.403 24.3101 137.04 24.3101C140.109 24.3101 142.565 26.7511 142.565 31.1101V38.3896H139.352Z" fill="url(#paint7_linear_1_53874)"/>
<path d="M43.3196 15.1344V7.76774C43.3196 5.95876 42.4192 4.30235 40.6798 4.30235C38.9609 4.30235 37.9378 5.95876 37.9378 7.76774V15.1344H34.7456V1.36004H37.7127L37.9583 3.03825C38.6335 1.64337 40.1273 1.14209 41.3551 1.14209C42.9103 1.14209 44.445 1.81773 45.1817 3.71389C46.3276 1.75235 47.8214 1.20748 49.4994 1.20748C53.1622 1.20748 54.9834 3.60491 54.9834 7.72414V15.1344H51.7912V7.72414C51.7912 5.91517 51.075 4.36773 49.3561 4.36773C47.6372 4.36773 46.5527 5.95876 46.5527 7.76774V15.1344H43.3196Z" fill="black"/>
<path d="M70.6581 1.38184L62.7798 20.8883H59.2602L61.6748 14.9165L56.5182 1.38184H60.2424L62.2069 7.33184L63.4347 11.2113L64.7647 7.41902L67.118 1.40363H70.6581V1.38184Z" fill="black"/>
<path d="M43.3196 15.1344V7.76774C43.3196 5.95876 42.4192 4.30235 40.6798 4.30235C38.9609 4.30235 37.9378 5.95876 37.9378 7.76774V15.1344H34.7456V1.36004H37.7127L37.9583 3.03825C38.6335 1.64337 40.1273 1.14209 41.3551 1.14209C42.9103 1.14209 44.445 1.81773 45.1817 3.71389C46.3276 1.75235 47.8214 1.20748 49.4994 1.20748C53.1622 1.20748 54.9834 3.60491 54.9834 7.72414V15.1344H51.7912V7.72414C51.7912 5.91517 51.075 4.36773 49.3561 4.36773C47.6372 4.36773 46.5527 5.95876 46.5527 7.76774V15.1344H43.3196Z" fill="url(#paint8_linear_1_53874)"/>
<path d="M70.6581 1.38184L62.7798 20.8883H59.2602L61.6748 14.9165L56.5182 1.38184H60.2424L62.2069 7.33184L63.4347 11.2113L64.7647 7.41902L67.118 1.40363H70.6581V1.38184Z" fill="url(#paint9_linear_1_53874)"/>
<path d="M67.6705 40.5474H69.7372V41.2448H68.3662V42.1602H69.5122V42.8358H68.3662V43.773H69.7782V44.4704H67.65V40.5474H67.6705Z" fill="black"/>
<path d="M76.6333 40.5474H77.9634C78.966 40.5474 79.7436 41.3538 79.7436 42.5089C79.7436 43.664 78.9865 44.4704 77.9634 44.4704H76.6333V40.5474ZM77.9224 43.7294C78.6182 43.7294 78.9865 43.2281 78.9865 42.4871C78.9865 41.7461 78.6182 41.2448 77.9224 41.2448H77.329V43.7294H77.9224Z" fill="black"/>
<path d="M85.4528 42.9884V40.5474H86.169V42.9884C86.169 43.5986 86.5169 43.7948 86.8443 43.7948C87.1717 43.7948 87.5196 43.5986 87.5196 42.9884V40.5474H88.2358V42.9884C88.2358 43.9692 87.6219 44.4922 86.8443 44.4922C86.0667 44.4922 85.4528 43.9692 85.4528 42.9884Z" fill="black"/>
<path d="M95.0704 42.4871C95.0704 41.2666 95.9298 40.4819 96.953 40.4819C97.4441 40.4819 98.058 40.6781 98.4468 41.3319L97.9352 41.7025C97.6896 41.3319 97.3418 41.2012 96.9939 41.2012C96.3391 41.2012 95.8071 41.7024 95.8071 42.4871C95.8071 43.2935 96.3391 43.773 96.9939 43.773C97.3622 43.773 97.7101 43.6204 97.9352 43.2717L98.4468 43.6422C98.058 44.296 97.4646 44.4922 96.953 44.4922C95.9298 44.4922 95.0704 43.7076 95.0704 42.4871Z" fill="black"/>
<path d="M106.141 40.5474L107.553 44.4487H106.796L106.55 43.7512H104.995L104.749 44.4487H103.992L105.404 40.5474H106.141ZM106.305 43.0538L105.773 41.4846L105.24 43.0538H106.305Z" fill="black"/>
<path d="M113.937 41.2228H113.057V40.5254H115.533V41.2228H114.653V44.4485H113.937V41.2228Z" fill="black"/>
<path d="M121.243 40.5474H121.959V44.4487H121.243V40.5474Z" fill="black"/>
<path d="M128.793 42.4871C128.793 41.2883 129.653 40.4819 130.676 40.4819C131.699 40.4819 132.559 41.2883 132.559 42.4871C132.559 43.6858 131.699 44.4922 130.676 44.4922C129.653 44.4922 128.793 43.6858 128.793 42.4871ZM130.676 43.773C131.31 43.773 131.842 43.2717 131.842 42.4871C131.842 41.7024 131.31 41.2012 130.676 41.2012C130.042 41.2012 129.51 41.7024 129.51 42.4871C129.51 43.2717 130.062 43.773 130.676 43.773Z" fill="black"/>
<path d="M138.35 40.5474H139.066L140.744 43.2063H140.764V40.5474H141.48V44.4487H140.764L139.086 41.7897H139.066V44.4487H138.35V40.5474Z" fill="black"/>
<path d="M67.6705 40.5474H69.7372V41.2448H68.3662V42.1602H69.5122V42.8358H68.3662V43.773H69.7782V44.4704H67.65V40.5474H67.6705Z" fill="url(#paint10_linear_1_53874)"/>
<path d="M76.6333 40.5474H77.9634C78.966 40.5474 79.7436 41.3538 79.7436 42.5089C79.7436 43.664 78.9865 44.4704 77.9634 44.4704H76.6333V40.5474ZM77.9224 43.7294C78.6182 43.7294 78.9865 43.2281 78.9865 42.4871C78.9865 41.7461 78.6182 41.2448 77.9224 41.2448H77.329V43.7294H77.9224Z" fill="url(#paint11_linear_1_53874)"/>
<path d="M85.4528 42.9884V40.5474H86.169V42.9884C86.169 43.5986 86.5169 43.7948 86.8443 43.7948C87.1717 43.7948 87.5196 43.5986 87.5196 42.9884V40.5474H88.2358V42.9884C88.2358 43.9692 87.6219 44.4922 86.8443 44.4922C86.0667 44.4922 85.4528 43.9692 85.4528 42.9884Z" fill="url(#paint12_linear_1_53874)"/>
<path d="M95.0704 42.4871C95.0704 41.2666 95.9298 40.4819 96.953 40.4819C97.4441 40.4819 98.058 40.6781 98.4468 41.3319L97.9352 41.7025C97.6896 41.3319 97.3418 41.2012 96.9939 41.2012C96.3391 41.2012 95.8071 41.7024 95.8071 42.4871C95.8071 43.2935 96.3391 43.773 96.9939 43.773C97.3622 43.773 97.7101 43.6204 97.9352 43.2717L98.4468 43.6422C98.058 44.296 97.4646 44.4922 96.953 44.4922C95.9298 44.4922 95.0704 43.7076 95.0704 42.4871Z" fill="url(#paint13_linear_1_53874)"/>
<path d="M106.141 40.5474L107.553 44.4487H106.796L106.55 43.7512H104.995L104.749 44.4487H103.992L105.404 40.5474H106.141ZM106.305 43.0538L105.773 41.4846L105.24 43.0538H106.305Z" fill="url(#paint14_linear_1_53874)"/>
<path d="M113.937 41.2228H113.057V40.5254H115.533V41.2228H114.653V44.4485H113.937V41.2228Z" fill="url(#paint15_linear_1_53874)"/>
<path d="M121.243 40.5474H121.959V44.4487H121.243V40.5474Z" fill="url(#paint16_linear_1_53874)"/>
<path d="M128.793 42.4871C128.793 41.2883 129.653 40.4819 130.676 40.4819C131.699 40.4819 132.559 41.2883 132.559 42.4871C132.559 43.6858 131.699 44.4922 130.676 44.4922C129.653 44.4922 128.793 43.6858 128.793 42.4871ZM130.676 43.773C131.31 43.773 131.842 43.2717 131.842 42.4871C131.842 41.7024 131.31 41.2012 130.676 41.2012C130.042 41.2012 129.51 41.7024 129.51 42.4871C129.51 43.2717 130.062 43.773 130.676 43.773Z" fill="url(#paint17_linear_1_53874)"/>
<path d="M138.35 40.5474H139.066L140.744 43.2063H140.764V40.5474H141.48V44.4487H140.764L139.086 41.7897H139.066V44.4487H138.35V40.5474Z" fill="url(#paint18_linear_1_53874)"/>
<path d="M9.43289 1.0332H28.5044L28.6476 8.44346H27.5835C27.5835 8.44346 27.8291 3.32167 22.0995 3.38705H11.295C11.2746 3.40885 9.94446 1.57807 9.43289 1.0332Z" fill="url(#paint19_linear_1_53874)"/>
<path d="M13.1571 34.2487H25.8033C25.8033 34.2487 29.8345 33.7911 30.4484 29.127H31.7375C31.7375 29.127 29.9572 37.0821 29.9982 39.4795C29.9982 39.4795 28.8113 39.1962 27.2766 39.0872H9.88307L13.1571 34.2487Z" fill="url(#paint20_linear_1_53874)"/>
<path d="M7.07965 0.75L20.3601 19.2974C20.3601 19.2974 20.7489 19.7987 20.2578 20.4526L7.52983 39.2615L0.858907 39.5013C0.858907 39.5013 0.613353 39.3269 0.94076 38.9782L14.0166 20.8449C14.0166 20.8449 14.7737 20.1474 14.2212 19.5154L0.858907 1.1641C0.858907 1.1641 0.490574 0.750001 1.49326 0.771796H7.07965V0.75Z" fill="url(#paint21_linear_1_53874)"/>
<defs>
<linearGradient id="paint0_linear_1_53874" x1="88.4119" y1="41.6726" x2="88.4119" y2="22.9985" gradientUnits="userSpaceOnUse">
<stop offset="2.34895e-08" stop-color="#004EA3"/>
<stop offset="1" stop-color="#0B80E8"/>
</linearGradient>
<linearGradient id="paint1_linear_1_53874" x1="88.4119" y1="41.6725" x2="88.4119" y2="22.9984" gradientUnits="userSpaceOnUse">
<stop offset="2.34895e-08" stop-color="#004EA3"/>
<stop offset="1" stop-color="#0B80E8"/>
</linearGradient>
<linearGradient id="paint2_linear_1_53874" x1="88.4119" y1="41.6722" x2="88.4119" y2="22.9982" gradientUnits="userSpaceOnUse">
<stop offset="2.34895e-08" stop-color="#004EA3"/>
<stop offset="1" stop-color="#0B80E8"/>
</linearGradient>
<linearGradient id="paint3_linear_1_53874" x1="88.4119" y1="41.6724" x2="88.4119" y2="22.9984" gradientUnits="userSpaceOnUse">
<stop offset="2.34895e-08" stop-color="#004EA3"/>
<stop offset="1" stop-color="#0B80E8"/>
</linearGradient>
<linearGradient id="paint4_linear_1_53874" x1="88.4119" y1="41.6726" x2="88.4119" y2="22.9986" gradientUnits="userSpaceOnUse">
<stop offset="2.34895e-08" stop-color="#004EA3"/>
<stop offset="1" stop-color="#0B80E8"/>
</linearGradient>
<linearGradient id="paint5_linear_1_53874" x1="88.412" y1="41.6724" x2="88.412" y2="22.9984" gradientUnits="userSpaceOnUse">
<stop offset="2.34895e-08" stop-color="#004EA3"/>
<stop offset="1" stop-color="#0B80E8"/>
</linearGradient>
<linearGradient id="paint6_linear_1_53874" x1="88.4119" y1="41.6723" x2="88.4119" y2="22.9983" gradientUnits="userSpaceOnUse">
<stop offset="2.34895e-08" stop-color="#004EA3"/>
<stop offset="1" stop-color="#0B80E8"/>
</linearGradient>
<linearGradient id="paint7_linear_1_53874" x1="88.412" y1="41.6724" x2="88.412" y2="22.9983" gradientUnits="userSpaceOnUse">
<stop offset="2.34895e-08" stop-color="#004EA3"/>
<stop offset="1" stop-color="#0B80E8"/>
</linearGradient>
<linearGradient id="paint8_linear_1_53874" x1="52.6916" y1="19.13" x2="52.6916" y2="7.07091" gradientUnits="userSpaceOnUse">
<stop offset="2.34895e-08" stop-color="#FBB232"/>
<stop offset="1" stop-color="#FFAD2C"/>
</linearGradient>
<linearGradient id="paint9_linear_1_53874" x1="52.6916" y1="19.13" x2="52.6916" y2="7.07091" gradientUnits="userSpaceOnUse">
<stop offset="2.34895e-08" stop-color="#FBB232"/>
<stop offset="1" stop-color="#FFAD2C"/>
</linearGradient>
<linearGradient id="paint10_linear_1_53874" x1="104.58" y1="43.492" x2="104.58" y2="41.0127" gradientUnits="userSpaceOnUse">
<stop offset="2.34895e-08" stop-color="#004EA3"/>
<stop offset="1" stop-color="#0B80E8"/>
</linearGradient>
<linearGradient id="paint11_linear_1_53874" x1="104.58" y1="43.492" x2="104.58" y2="41.0127" gradientUnits="userSpaceOnUse">
<stop offset="2.34895e-08" stop-color="#004EA3"/>
<stop offset="1" stop-color="#0B80E8"/>
</linearGradient>
<linearGradient id="paint12_linear_1_53874" x1="104.58" y1="43.492" x2="104.58" y2="41.0127" gradientUnits="userSpaceOnUse">
<stop offset="2.34895e-08" stop-color="#004EA3"/>
<stop offset="1" stop-color="#0B80E8"/>
</linearGradient>
<linearGradient id="paint13_linear_1_53874" x1="104.58" y1="43.4919" x2="104.58" y2="41.0126" gradientUnits="userSpaceOnUse">
<stop offset="2.34895e-08" stop-color="#004EA3"/>
<stop offset="1" stop-color="#0B80E8"/>
</linearGradient>
<linearGradient id="paint14_linear_1_53874" x1="104.58" y1="43.492" x2="104.58" y2="41.0127" gradientUnits="userSpaceOnUse">
<stop offset="2.34895e-08" stop-color="#004EA3"/>
<stop offset="1" stop-color="#0B80E8"/>
</linearGradient>
<linearGradient id="paint15_linear_1_53874" x1="104.58" y1="43.4918" x2="104.58" y2="41.0125" gradientUnits="userSpaceOnUse">
<stop offset="2.34895e-08" stop-color="#004EA3"/>
<stop offset="1" stop-color="#0B80E8"/>
</linearGradient>
<linearGradient id="paint16_linear_1_53874" x1="104.58" y1="43.492" x2="104.58" y2="41.0127" gradientUnits="userSpaceOnUse">
<stop offset="2.34895e-08" stop-color="#004EA3"/>
<stop offset="1" stop-color="#0B80E8"/>
</linearGradient>
<linearGradient id="paint17_linear_1_53874" x1="104.58" y1="43.4919" x2="104.58" y2="41.0126" gradientUnits="userSpaceOnUse">
<stop offset="2.34895e-08" stop-color="#004EA3"/>
<stop offset="1" stop-color="#0B80E8"/>
</linearGradient>
<linearGradient id="paint18_linear_1_53874" x1="104.58" y1="43.492" x2="104.58" y2="41.0127" gradientUnits="userSpaceOnUse">
<stop offset="2.34895e-08" stop-color="#004EA3"/>
<stop offset="1" stop-color="#0B80E8"/>
</linearGradient>
<linearGradient id="paint19_linear_1_53874" x1="19.0403" y1="9.377" x2="19.0403" y2="1.12967" gradientUnits="userSpaceOnUse">
<stop stop-color="#2076BC"/>
<stop offset="1" stop-color="#0093E6"/>
</linearGradient>
<linearGradient id="paint20_linear_1_53874" x1="20.8137" y1="39.7447" x2="20.8137" y2="29.2386" gradientUnits="userSpaceOnUse">
<stop offset="2.34895e-08" stop-color="#074BA7"/>
<stop offset="1" stop-color="#1158C0"/>
</linearGradient>
<linearGradient id="paint21_linear_1_53874" x1="10.6307" y1="39.2906" x2="10.6307" y2="0.200682" gradientUnits="userSpaceOnUse">
<stop stop-color="#FDB619"/>
<stop offset="1" stop-color="#FEB517"/>
</linearGradient>
</defs>
</svg>
